:SAMPLES-PER-SECOND 30
:FULLY-SPECIFIED
:DEGREES
100
root  -42.2667 37.4682 8.63532 26.3024 -82.8723 -32.409
RightUpLeg  -23.7243 -13.1483 6.87005
RightLeg  33.2563 -2.13707 -1.77437
RightFoot  -4.36905 0.359457 -6.3785
RightToes  6.35927e-011 1.30204e-014 -6.03759e-014
Spine  8.60865 -3.43172 11.8283
Spine1  12.0038 -1.99826 0.97604
HEad  -6.4069 -4.39659 -0.404768
LeftShoulder1  0.0136072 3.46739 -31.1612
LeftArm  11.2056 6.08794 -45.8438
LeftForeArm  27.1867 -39.7215 -7.57083
LeftHand  -0.0766565 4.35679 6.65808
RightShoulder  -0.710245 -5.65295 26.3782
RightArm  15.9928 -1.92747 48.8357
RightForeArm  7.07337 18.5178 4.77241
RightHand  -0.325706 3.61396 -4.45217
LeftUpLeg  -1.58381 1.69313 8.77328
LeftLeg  64.897 -2.02566 -4.08878
LeftFoot  10.0829 1.35911 -7.47171
LeftToes  -7.16024e-010 4.79583e-011 -5.98286e-011
101
root  -43.5346 37.8279 8.59528 28.0117 -83.4411 -34.5524
RightUpLeg  -20.3625 -12.8385 6.5296
RightLeg  32.3653 -1.95628 -1.6012
RightFoot  -6.20868 0.230976 -6.09442
RightToes  6.35927e-011 1.30204e-014 -6.03759e-014
Spine  8.63178 -3.01743 12.5165
Spine1  11.8108 -1.24718 -0.00372577
HEad  -5.36088 -5.11199 -0.347043
LeftShoulder1  0.0401853 3.39576 -31.1048
LeftArm  12.296 5.71571 -45.9216
LeftForeArm  28.7035 -40.1798 -7.61358
LeftHand  -0.0656176 4.56833 6.64566
RightShoulder  -0.638168 -5.47438 25.6803
RightArm  16.3423 0.25904 48.9706
RightForeArm  6.12114 21.3187 4.53829
RightHand  -0.361615 3.70131 -4.87294
LeftUpLeg  -5.72631 0.704091 8.20489
LeftLeg  66.9404 -1.62924 -3.50629
LeftFoot  6.62793 0.922032 -6.10647
LeftToes  -7.16024e-010 4.79583e-011 -5.98286e-011
102
root  -44.7774 38.2007 8.56357 30.3727 -84.3453 -37.1565
RightUpLeg  -17.0908 -12.597 6.05235
RightLeg  30.9696 -1.44735 -1.19868
RightFoot  -7.66412 0.142917 -6.04855
RightToes  6.35927e-011 1.30204e-014 -6.03759e-014
Spine  8.47668 -2.50574 13.0642
Spine1  11.5105 -0.401165 -1.12825
HEad  -4.39184 -5.40415 -0.439905
LeftShoulder1  0.0897111 3.25912 -30.5744
LeftArm  11.8125 6.12421 -46.1079
LeftForeArm  28.994 -41.3187 -7.94467
LeftHand  -0.0667926 4.5674 6.82838
RightShoulder  -0.608546 -5.40437 25.2914
RightArm  15.5025 2.56957 48.6227
RightForeArm  7.26041 24.2198 4.7773
RightHand  -0.37263 3.85827 -4.93986
LeftUpLeg  -9.60367 -0.217658 7.32067
LeftLeg  66.2225 -1.65337 -3.42481
LeftFoot  3.83238 0.718969 -5.56879
LeftToes  -7.16024e-010 4.79583e-011 -5.98286e-011
103
root  -45.9965 38.5376 8.53385 35.3544 -85.502 -42.3036
RightUpLeg  -13.9089 -12.0515 5.49864
RightLeg  29.3814 -0.906135 -0.809849
RightFoot  -8.88171 0.0624361 -5.68038
RightToes  6.35927e-011 1.30204e-014 -6.03759e-014
Spine  8.30859 -1.93189 13.4263
Spine1  11.0692 0.475874 -2.32581
HEad  -3.69381 -5.34875 -0.41928
LeftShoulder1  0.122649 3.16409 -29.9568
LeftArm  10.3989 6.71669 -46.1883
LeftForeArm  28.1224 -42.6958 -8.44269
LeftHand  -0.0701312 4.50185 6.80292
RightShoulder  -0.588477 -5.35232 25.0885
RightArm  13.2773 4.75882 47.985
RightForeArm  8.94272 27.3583 5.41968
RightHand  -0.377909 4.28623 -4.80903
LeftUpLeg  -12.9414 -0.761907 6.50025
LeftLeg  63.3091 -1.95139 -3.60931
LeftFoot  1.00754 0.485853 -4.52427
LeftToes  -7.16024e-010 4.79583e-011 -5.98286e-011
104
root  -47.1935 38.815 8.51336 45.4837 -86.7595 -52.5904
RightUpLeg  -10.7717 -11.192 4.87317
RightLeg  27.7867 -0.473692 -0.508981
RightFoot  -10.1032 -0.0114298 -5.27317
RightToes  6.35927e-011 1.30204e-014 -6.03759e-014
Spine  8.12661 -1.37556 13.4376
Spine1  10.6944 1.18988 -3.30435
HEad  -3.31704 -5.03608 -0.376114
LeftShoulder1  0.111553 3.19271 -29.7328
LeftArm  8.5785 7.08482 -45.9257
LeftForeArm  27.0452 -44.2066 -9.02684
LeftHand  -0.0814695 4.32826 7.00969
RightShoulder  -0.547573 -5.24318 24.7009
RightArm  10.6318 6.92083 47.4218
RightForeArm  9.50163 30.8156 6.21806
RightHand  -0.440928 4.70601 -5.35187
LeftUpLeg  -15.6061 -0.698931 5.88105
LeftLeg  58.3853 -2.2768 -3.47491
LeftFoot  -2.11894 0.291651 -3.48381
LeftToes  -7.16024e-010 4.79583e-011 -5.98286e-011
105
root  -48.3612 39.0351 8.50243 64.1685 -87.7428 -71.3769
RightUpLeg  -7.83681 -10.1176 4.25756
RightLeg  26.3092 -0.315606 -0.306736
RightFoot  -11.3387 -0.076665 -5.22573
RightToes  6.35927e-011 1.30204e-014 -6.03759e-014
Spine  7.90468 -0.941549 13.2801
Spine1  10.3305 1.66541 -4.15716
HEad  -3.1428 -4.69511 -0.370162
LeftShoulder1  0.120679 3.16542 -29.5353
LeftArm  6.69928 7.28144 -45.5649
LeftForeArm  26.502 -45.9843 -9.70719
LeftHand  -0.109212 3.98299 7.75533
RightShoulder  -0.509811 -5.14532 24.2436
RightArm  7.97403 9.14285 46.8639
RightForeArm  9.17199 34.6226 7.23113
RightHand  -0.563137 4.70443 -6.7638
LeftUpLeg  -17.627 -0.452448 5.42052
LeftLeg  51.4108 -2.53161 -2.96455
LeftFoot  -3.55369 0.253691 -3.41769
LeftToes  -7.16024e-010 4.79583e-011 -5.98286e-011
106
root  -49.478 39.1993 8.49616 93.2439 -88.0568 -100.481
RightUpLeg  -5.2068 -8.82013 3.91025
RightLeg  24.9599 -0.430229 -0.235688
RightFoot  -12.459 -0.135084 -5.23784
RightToes  6.35927e-011 1.30204e-014 -6.03759e-014
Spine  7.60942 -0.593611 13.0883
Spine1  10.1652 1.94521 -4.76542
HEad  -3.25294 -4.42615 -0.519082
LeftShoulder1  0.138246 3.11565 -29.4851
LeftArm  5.16535 6.85943 -45.0059
LeftForeArm  26.4719 -48.0614 -10.5198
LeftHand  -0.135568 3.72224 8.52571
RightShoulder  -0.474139 -5.05529 23.7043
RightArm  5.40423 11.684 46.2136
RightForeArm  8.78682 38.495 8.37489
RightHand  -0.627501 4.39303 -7.71377
LeftUpLeg  -18.9 -0.402958 5.24522
LeftLeg  42.7111 -2.89761 -2.47975
LeftFoot  -3.08352 0.319795 -4.16599
LeftToes  -7.16024e-010 4.79583e-011 -5.98286e-011
107
root  -50.5415 39.2903 8.49604 121.721 -87.413 -129.014
RightUpLeg  -2.76481 -7.54767 4.00103
RightLeg  23.794 -0.398468 -0.221315
RightFoot  -13.5386 -0.187768 -5.02543
RightToes  6.35927e-011 1.30204e-014 -6.03759e-014
Spine  7.37392 -0.262375 12.9709
Spine1  10.2796 2.15792 -5.08554
HEad  -3.65078 -4.0523 -0.751781
LeftShoulder1  0.147663 3.09053 -29.6007
LeftArm  3.71617 5.66761 -44.3891
LeftForeArm  26.6967 -50.1952 -11.4122
LeftHand  -0.144123 3.66239 8.82778
RightShoulder  -0.408791 -4.87084 22.9578
RightArm  3.04709 14.8308 45.5909
RightForeArm  8.64129 41.7331 9.42799
RightHand  -0.586196 4.36761 -7.24772
LeftUpLeg  -19.3595 -0.395121 5.56871
LeftLeg  32.9918 -3.62321 -2.18231
LeftFoot  -2.63611 0.421113 -5.33033
LeftToes  -7.16024e-010 4.79583e-011 -5.98286e-011
108
root  -51.5735 39.3326 8.4973 137.947 -86.0755 -145.409
RightUpLeg  -0.3081 -6.36334 4.23488
RightLeg  22.7401 -0.0724388 -0.157357
RightFoot  -14.6315 -0.237456 -4.81726
RightToes  6.35927e-011 1.30204e-014 -6.03759e-014
Spine  7.32607 0.0440271 12.7566
Spine1  10.5862 2.39944 -5.41221
HEad  -4.11152 -3.42433 -0.848062
LeftShoulder1  0.168418 3.02924 -29.3682
LeftArm  1.87906 4.08704 -44.2336
LeftForeArm  26.9032 -52.0793 -12.2765
LeftHand  -0.159362 3.46874 8.90738
RightShoulder  -0.318647 -4.5955 22.0952
RightArm  1.23962 18.7978 45.2392
RightForeArm  8.15437 43.631 10.1308
RightHand  -0.536292 4.80921 -6.39067
LeftUpLeg  -19.1144 -0.406671 6.22867
LeftLeg  22.8157 -4.65378 -1.8868
LeftFoot  -2.44433 0.514106 -6.41279
LeftToes  -7.16024e-010 4.79583e-011 -5.98286e-011
109
root  -52.592 39.3424 8.50067 147.941 -84.4369 -155.637
RightUpLeg  2.00688 -4.96895 4.34735
RightLeg  21.9903 0.234259 -0.127632
RightFoot  -15.7774 -0.28957 -4.71936
RightToes  6.35927e-011 1.30204e-014 -6.03759e-014
Spine  7.42491 0.294294 12.2239
Spine1  10.9842 2.68138 -5.88636
HEad  -4.3702 -2.65169 -0.765508
LeftShoulder1  0.200309 2.92839 -28.6765
LeftArm  -0.151805 2.21274 -44.4685
LeftForeArm  26.9426 -53.6294 -13.0646
LeftHand  -0.195592 3.04468 9.18342
RightShoulder  -0.234209 -4.31955 21.3977
RightArm  0.13159 23.5763 45.2311
RightForeArm  6.73248 43.8853 10.3246
RightHand  -0.555606 5.16771 -6.40415
LeftUpLeg  -18.3723 0.000972283 6.58848
LeftLeg  12.8486 -6.5554 -1.05199
LeftFoot  -1.66822 0.5935 -6.89279
LeftToes  -7.16024e-010 4.79583e-011 -5.98286e-011
110
root  -53.6303 39.2556 8.52791 153.578 -82.6492 -161.457
RightUpLeg  3.78303 -3.03432 4.52614
RightLeg  22.2194 0.0756835 -0.235643
RightFoot  -17.3078 -0.348228 -4.44313
RightToes  6.35927e-011 1.30204e-014 -6.03759e-014
Spine  7.58268 0.457117 11.6873
Spine1  11.2247 2.95096 -6.4407
HEad  -4.35998 -1.862 -0.500158
LeftShoulder1  0.224091 2.84364 -27.7823
LeftArm  -2.05789 -0.101575 -44.7139
LeftForeArm  27.0383 -54.9885 -13.8061
LeftHand  -0.223856 2.79336 9.62624
RightShoulder  -0.151541 -4.03231 20.8857
RightArm  -0.563651 28.661 45.6227
RightForeArm  4.58018 42.6684 10.0279
RightHand  -0.594156 5.12652 -6.85251
LeftUpLeg  -17.6937 2.73281 5.86808
LeftLeg  4.9816 -11.2257 0.743796
LeftFoot  -1.22016 0.642704 -7.17613
LeftToes  -7.16024e-010 4.79583e-011 -5.98286e-011
111
root  -54.7169 39.039 8.59878 155.267 -80.9187 -163.213
RightUpLeg  5.06886 -0.98419 4.92075
RightLeg  23.448 -0.371598 -0.402464
RightFoot  -19.3612 -0.402836 -3.88128
RightToes  6.35927e-011 1.30204e-014 -6.03759e-014
Spine  7.67113 0.527185 11.5244
Spine1  11.278 3.14878 -6.96591
HEad  -4.28684 -1.14513 -0.00895387
LeftShoulder1  0.243303 2.7705 -27.0008
LeftArm  -3.84606 -3.02882 -44.9121
LeftForeArm  27.1535 -56.0846 -14.4417
LeftHand  -0.228898 2.84207 10.0391
RightShoulder  -0.0390426 -3.62425 20.1592
RightArm  -1.27833 33.3998 46.3837
RightForeArm  2.2841 40.4134 9.39731
RightHand  -0.576574 5.07389 -6.68956
LeftUpLeg  -17.9169 3.96515 5.75306
LeftLeg  1.84195 -14.4066 1.69067
LeftFoot  -1.69489 0.675034 -7.87389
LeftToes  -7.16024e-010 4.79583e-011 -5.98286e-011
112
root  -55.8503 38.7444 8.72057 155.24 -79.3931 -163.148
RightUpLeg  6.22418 0.504598 5.26391
RightLeg  25.0051 -0.513326 -0.49166
RightFoot  -21.6888 -0.438883 -3.22525
RightToes  6.35927e-011 1.30204e-014 -6.03759e-014
Spine  7.68367 0.574221 11.7109
Spine1  11.3261 3.35511 -7.47455
HEad  -4.25076 -0.79996 0.556451
LeftShoulder1  0.283279 2.63595 -26.4484
LeftArm  -5.54276 -6.59854 -45.3503
LeftForeArm  26.7075 -56.5849 -14.7942
LeftHand  -0.242623 2.78135 10.4311
RightShoulder  0.0970687 -3.09935 19.0128
RightArm  -2.11564 37.5745 47.0817
RightForeArm  -0.148841 37.5268 8.62408
RightHand  -0.524382 5.16147 -6.06639
LeftUpLeg  -19.0307 3.32819 6.15987
LeftLeg  3.87998 -15.937 1.06768
LeftFoot  -0.795892 0.812605 -8.71543
LeftToes  -7.16024e-010 4.79583e-011 -5.98286e-011
